<?xml version="1.0" standalone="no"?>
<!DOCTYPE svg PUBLIC "-//W3C//DTD SVG 20010904//EN"
 "http://www.w3.org/TR/2001/REC-SVG-20010904/DTD/svg10.dtd">
<svg version="1.0" xmlns="http://www.w3.org/2000/svg"
 width="47.000000pt" height="48.000000pt" viewBox="0 0 47.000000 48.000000"
 preserveAspectRatio="xMidYMid meet">
<metadata>
Created by potrace 1.16, written by Peter Selinger 2001-2019
</metadata>
<g transform="translate(0.000000,48.000000) scale(0.100000,-0.100000)"
fill="#000000" stroke="none">
<path d="M202 438 c-7 -7 -12 -40 -12 -80 l0 -68 -68 0 c-76 0 -92 -9 -92 -55
0 -46 16 -55 92 -55 l68 0 0 -68 c0 -75 10 -92 51 -92 45 0 59 23 59 96 l0 64
64 0 c73 0 96 14 96 59 0 41 -17 51 -92 51 l-68 0 0 68 c0 76 -9 92 -55 92
-17 0 -36 -5 -43 -12z"/>
</g>
</svg>
